<svg xmlns="http://www.w3.org/2000/svg" width="600" height="600" viewBox="0 0 600 600"><rect width="600" height="600" fill="#fff"/><defs><clipPath id="barnes-platform-600-300-300"><circle cx="300" cy="300" r="260.87"/></clipPath></defs><g clip-path="url(#barnes-platform-600-300-300)"><rect width="13.5" height="13.5" x="417.4" y="130.4" fill="#421763" opacity=".4"/><rect width="13.5" height="13.5" x="430.4" y="130.4" fill="#3E3C7C" opacity=".47"/><rect width="13.5" height="13.5" x="443.5" y="130.4" fill="#24948A" opacity=".68"/><rect width="13.5" height="13.5" x="456.5" y="130.4" fill="#25878C" opacity=".65"/><rect width="13.5" height="13.5" x="469.6" y="130.4" fill="#316A8B" opacity=".58"/><rect width="13.5" height="13.5" x="378.3" y="143.5" fill="#430A5A" opacity=".37"/><rect width="13.5" height="13.5" x="391.3" y="143.5" fill="#421763" opacity=".4"/><rect width="13.5" height="13.5" x="404.3" y="143.5" fill="#40256C" opacity=".42"/><rect width="13.5" height="13.5" x="417.4" y="143.5" fill="#3F2E73" opacity=".44"/><rect width="13.5" height="13.5" x="430.4" y="143.5" fill="#3C4582" opacity=".49"/><rect width="13.5" height="13.5" x="443.5" y="143.5" fill="#24948A" opacity=".68"/><rect width="13.5" height="13.5" x="456.5" y="143.5" fill="#25878C" opacity=".65"/><rect width="13.5" height="13.5" x="469.6" y="143.5" fill="#316A8B" opacity=".58"/><rect width="13.5" height="13.5" x="339.1" y="156.5" fill="#430A5A" opacity=".37"/><rect width="13.5" height="13.5" x="352.2" y="156.5" fill="#421863" opacity=".4"/><rect width="13.5" height="13.5" x="365.2" y="156.5" fill="#40256C" opacity=".42"/><rect width="13.5" height="13.5" x="378.3" y="156.5" fill="#40296F" opacity=".43"/><rect width="13.5" height="13.5" x="391.3" y="156.5" fill="#40296F" opacity=".43"/><rect width="13.5" height="13.5" x="404.3" y="156.5" fill="#40296F" opacity=".43"/><rect width="13.5" height="13.5" x="417.4" y="156.5" fill="#3F2E73" opacity=".44"/><rect width="13.5" height="13.5" x="430.4" y="156.5" fill="#3C4582" opacity=".49"/><rect width="13.5" height="13.5" x="443.5" y="156.5" fill="#24948A" opacity=".68"/><rect width="13.5" height="13.5" x="456.5" y="156.5" fill="#25878C" opacity=".65"/><rect width="13.5" height="13.5" x="469.6" y="156.5" fill="#316A8B" opacity=".58"/><rect width="13.5" height="13.5" x="287" y="169.6" fill="#430A5A" opacity=".37"/><rect width="13.5" height="13.5" x="300" y="169.6" fill="#421360" opacity=".39"/><rect width="13.5" height="13.5" x="313" y="169.6" fill="#411C66" opacity=".4"/><rect width="13.5" height="13.5" x="326.1" y="169.6" fill="#412069" opacity=".41"/><rect width="13.5" height="13.5" x="339.1" y="169.6" fill="#40256C" opacity=".42"/><rect width="13.5" height="13.5" x="352.2" y="169.6" fill="#40256C" opacity=".42"/><rect width="13.5" height="13.5" x="365.2" y="169.6" fill="#3F2A70" opacity=".43"/><rect width="13.5" height="13.5" x="378.3" y="169.6" fill="#40296F" opacity=".43"/><rect width="13.5" height="13.5" x="391.3" y="169.6" fill="#40296F" opacity=".43"/><rect width="13.5" height="13.5" x="404.3" y="169.6" fill="#40256C" opacity=".42"/><rect width="13.5" height="13.5" x="417.4" y="169.6" fill="#421863" opacity=".4"/><rect width="13.5" height="13.5" x="430.4" y="169.6" fill="#430A5A" opacity=".37"/><rect width="13.5" height="13.5" x="247.8" y="182.6" fill="#430A5A" opacity=".37"/><rect width="13.5" height="13.5" x="260.9" y="182.6" fill="#421360" opacity=".39"/><rect width="13.5" height="13.5" x="273.9" y="182.6" fill="#411C66" opacity=".4"/><rect width="13.5" height="13.5" x="287" y="182.6" fill="#412169" opacity=".41"/><rect width="13.5" height="13.5" x="300" y="182.6" fill="#40256C" opacity=".42"/><rect width="13.5" height="13.5" x="313" y="182.6" fill="#40296F" opacity=".43"/><rect width="13.5" height="13.5" x="326.1" y="182.6" fill="#40256C" opacity=".42"/><rect width="13.5" height="13.5" x="339.1" y="182.6" fill="#40256C" opacity=".42"/><rect width="13.5" height="13.5" x="352.2" y="182.6" fill="#40256C" opacity=".42"/><rect width="13.5" height="13.5" x="365.2" y="182.6" fill="#3F2A70" opacity=".43"/><rect width="13.5" height="13.5" x="378.3" y="182.6" fill="#412169" opacity=".41"/><rect width="13.5" height="13.5" x="391.3" y="182.6" fill="#421360" opacity=".39"/><rect width="13.5" height="13.5" x="208.7" y="195.7" fill="#430E5D" opacity=".38"/><rect width="13.5" height="13.5" x="221.7" y="195.7" fill="#421763" opacity=".4"/><rect width="13.5" height="13.5" x="234.8" y="195.7" fill="#412169" opacity=".41"/><rect width="13.5" height="13.5" x="247.8" y="195.7" fill="#40296F" opacity=".43"/><rect width="13.5" height="13.5" x="260.9" y="195.7" fill="#3F2E73" opacity=".44"/><rect width="13.5" height="13.5" x="273.9" y="195.7" fill="#40296F" opacity=".43"/><rect width="13.5" height="13.5" x="287" y="195.7" fill="#40256C" opacity=".42"/><rect width="13.5" height="13.5" x="300" y="195.7" fill="#40256C" opacity=".42"/><rect width="13.5" height="13.5" x="313" y="195.7" fill="#40296F" opacity=".43"/><rect width="13.5" height="13.5" x="326.1" y="195.7" fill="#40256C" opacity=".42"/><rect width="13.5" height="13.5" x="339.1" y="195.7" fill="#411C66" opacity=".4"/><rect width="13.5" height="13.5" x="352.2" y="195.7" fill="#430E5D" opacity=".38"/><rect width="13.5" height="13.5" x="195.7" y="208.7" fill="#3A568B" opacity=".52"/><rect width="13.5" height="13.5" x="208.7" y="208.7" fill="#316A8B" opacity=".58"/><rect width="13.5" height="13.5" x="221.7" y="208.7" fill="#2E718C" opacity=".59"/><rect width="13.5" height="13.5" x="234.8" y="208.7" fill="#3F3276" opacity=".45"/><rect width="13.5" height="13.5" x="247.8" y="208.7" fill="#40296F" opacity=".43"/><rect width="13.5" height="13.5" x="260.9" y="208.7" fill="#3F2E73" opacity=".44"/><rect width="13.5" height="13.5" x="273.9" y="208.7" fill="#40256C" opacity=".42"/><rect width="13.5" height="13.5" x="287" y="208.7" fill="#411C66" opacity=".4"/><rect width="13.5" height="13.5" x="300" y="208.7" fill="#421360" opacity=".39"/><rect width="13.5" height="13.5" x="313" y="208.7" fill="#420F5D" opacity=".38"/><rect width="13.5" height="13.5" x="195.7" y="221.7" fill="#3A568B" opacity=".52"/><rect width="13.5" height="13.5" x="208.7" y="221.7" fill="#316A8B" opacity=".58"/><rect width="13.5" height="13.5" x="221.7" y="221.7" fill="#2B788C" opacity=".61"/><rect width="13.5" height="13.5" x="234.8" y="221.7" fill="#3E3B7C" opacity=".47"/><rect width="13.5" height="13.5" x="247.8" y="221.7" fill="#40296F" opacity=".43"/><rect width="13.5" height="13.5" x="260.9" y="221.7" fill="#411C66" opacity=".4"/><rect width="13.5" height="13.5" x="273.9" y="221.7" fill="#430E5D" opacity=".38"/><rect width="13.5" height="13.5" x="195.7" y="234.8" fill="#3B528B" opacity=".51"/><rect width="13.5" height="13.5" x="208.7" y="234.8" fill="#35608B" opacity=".55"/><rect width="13.5" height="13.5" x="221.7" y="234.8" fill="#316B8B" opacity=".58"/><rect width="13.5" height="13.5" x="234.8" y="234.8" fill="#40256C" opacity=".42"/><rect width="13.5" height="13.5" x="247.8" y="234.8" fill="#421863" opacity=".4"/><rect width="13.5" height="13.5" x="260.9" y="234.8" fill="#430A5A" opacity=".37"/><rect width="13.5" height="13.5" x="221.7" y="247.8" fill="#420F5D" opacity=".38"/><rect width="13.5" height="13.5" x="234.8" y="247.8" fill="#421360" opacity=".39"/><rect width="13.5" height="13.5" x="247.8" y="247.8" fill="#411C66" opacity=".4"/><rect width="13.5" height="13.5" x="260.9" y="247.8" fill="#421763" opacity=".4"/><rect width="13.5" height="13.5" x="273.9" y="247.8" fill="#421360" opacity=".39"/><rect width="13.5" height="13.5" x="287" y="247.8" fill="#430A5A" opacity=".37"/><rect width="13.5" height="13.5" x="234.8" y="260.9" fill="#430A5A" opacity=".37"/><rect width="13.5" height="13.5" x="247.8" y="260.9" fill="#421360" opacity=".39"/><rect width="13.5" height="13.5" x="260.9" y="260.9" fill="#411C66" opacity=".4"/><rect width="13.5" height="13.5" x="273.9" y="260.9" fill="#411C66" opacity=".4"/><rect width="13.5" height="13.5" x="287" y="260.9" fill="#421360" opacity=".39"/><rect width="13.5" height="13.5" x="260.9" y="273.9" fill="#421360" opacity=".39"/><rect width="13.5" height="13.5" x="273.9" y="273.9" fill="#421763" opacity=".4"/><rect width="13.5" height="13.5" x="287" y="273.9" fill="#411C66" opacity=".4"/><rect width="13.5" height="13.5" x="300" y="273.9" fill="#421360" opacity=".39"/><rect width="13.5" height="13.5" x="313" y="273.9" fill="#430F5D" opacity=".38"/><rect width="13.5" height="13.5" x="273.9" y="287" fill="#430A5A" opacity=".37"/><rect width="13.5" height="13.5" x="287" y="287" fill="#421360" opacity=".39"/><rect width="13.5" height="13.5" x="300" y="287" fill="#411C66" opacity=".4"/><rect width="13.5" height="13.5" x="313" y="287" fill="#411C66" opacity=".4"/><rect width="13.5" height="13.5" x="326.1" y="287" fill="#421763" opacity=".4"/><rect width="13.5" height="13.5" x="339.1" y="287" fill="#430A5A" opacity=".37"/><rect width="13.5" height="13.5" x="287" y="300" fill="#430A5A" opacity=".37"/><rect width="13.5" height="13.5" x="300" y="300" fill="#421763" opacity=".4"/><rect width="13.5" height="13.5" x="313" y="300" fill="#411C66" opacity=".4"/><rect width="13.5" height="13.5" x="326.1" y="300" fill="#411C66" opacity=".4"/><rect width="13.5" height="13.5" x="339.1" y="300" fill="#421360" opacity=".39"/><rect width="13.5" height="13.5" x="352.2" y="300" fill="#430E5D" opacity=".38"/><rect width="13.5" height="13.5" x="300" y="313" fill="#430A5A" opacity=".37"/><rect width="13.5" height="13.5" x="313" y="313" fill="#430F5D" opacity=".38"/><rect width="13.5" height="13.5" x="326.1" y="313" fill="#421763" opacity=".4"/><rect width="13.5" height="13.5" x="339.1" y="313" fill="#421863" opacity=".4"/><rect width="13.5" height="13.5" x="352.2" y="313" fill="#412169" opacity=".41"/><rect width="13.5" height="13.5" x="365.2" y="313" fill="#421863" opacity=".4"/><rect width="13.5" height="13.5" x="378.3" y="313" fill="#430F5D" opacity=".38"/><rect width="13.5" height="13.5" x="339.1" y="326.1" fill="#430F5D" opacity=".38"/><rect width="13.5" height="13.5" x="352.2" y="326.1" fill="#411C66" opacity=".4"/><rect width="13.5" height="13.5" x="365.2" y="326.1" fill="#412169" opacity=".41"/><rect width="13.5" height="13.5" x="378.3" y="326.1" fill="#421763" opacity=".4"/><rect width="13.5" height="13.5" x="391.3" y="326.1" fill="#430A5A" opacity=".37"/><rect width="13.5" height="13.5" x="352.2" y="339.1" fill="#421360" opacity=".39"/><rect width="13.5" height="13.5" x="365.2" y="339.1" fill="#411C66" opacity=".4"/><rect width="13.5" height="13.5" x="378.3" y="339.1" fill="#421763" opacity=".4"/><rect width="13.5" height="13.5" x="391.3" y="339.1" fill="#421763" opacity=".4"/><rect width="13.5" height="13.5" x="404.3" y="339.1" fill="#430F5D" opacity=".38"/><rect width="13.5" height="13.5" x="417.4" y="339.1" fill="#430F5D" opacity=".38"/><rect width="13.5" height="13.5" x="365.2" y="352.2" fill="#430A5A" opacity=".37"/><rect width="13.5" height="13.5" x="378.3" y="352.2" fill="#430A5A" opacity=".37"/><rect width="13.5" height="13.5" x="391.3" y="352.2" fill="#421763" opacity=".4"/><rect width="13.5" height="13.5" x="404.3" y="352.2" fill="#421763" opacity=".4"/><rect width="13.5" height="13.5" x="417.4" y="352.2" fill="#412169" opacity=".41"/><rect width="13.5" height="13.5" x="430.4" y="352.2" fill="#421360" opacity=".39"/><rect width="13.5" height="13.5" x="443.5" y="352.2" fill="#430A5A" opacity=".37"/><rect width="13.5" height="13.5" x="391.3" y="365.2" fill="#430F5D" opacity=".38"/><rect width="13.5" height="13.5" x="404.3" y="365.2" fill="#421763" opacity=".4"/><rect width="13.5" height="13.5" x="417.4" y="365.2" fill="#40256C" opacity=".42"/><rect width="13.5" height="13.5" x="430.4" y="365.2" fill="#411C66" opacity=".4"/><rect width="13.5" height="13.5" x="443.5" y="365.2" fill="#421360" opacity=".39"/><rect width="13.5" height="13.5" x="404.3" y="378.3" fill="#430A5A" opacity=".37"/><rect width="13.5" height="13.5" x="417.4" y="378.3" fill="#421763" opacity=".4"/><rect width="13.5" height="13.5" x="430.4" y="378.3" fill="#411C66" opacity=".4"/><rect width="13.5" height="13.5" x="443.5" y="378.3" fill="#411C66" opacity=".4"/><rect width="13.5" height="13.5" x="456.5" y="378.3" fill="#430F5D" opacity=".38"/><rect width="13.5" height="13.5" x="469.6" y="378.3" fill="#430A5A" opacity=".37"/><rect width="13.5" height="13.5" x="430.4" y="391.3" fill="#430A5A" opacity=".37"/><rect width="13.5" height="13.5" x="443.5" y="391.3" fill="#421763" opacity=".4"/><rect width="13.5" height="13.5" x="456.5" y="391.3" fill="#421360" opacity=".39"/><rect width="13.5" height="13.5" x="469.6" y="391.3" fill="#421863" opacity=".4"/><rect width="13.5" height="13.5" x="482.6" y="391.3" fill="#430A5A" opacity=".37"/><rect width="13.5" height="13.5" x="495.7" y="391.3" fill="#430A5A" opacity=".37"/><rect width="13.5" height="13.5" x="443.5" y="404.3" fill="#430F5D" opacity=".38"/><rect width="13.5" height="13.5" x="456.5" y="404.3" fill="#430F5D" opacity=".38"/><rect width="13.5" height="13.5" x="469.6" y="404.3" fill="#411C66" opacity=".4"/><rect width="13.5" height="13.5" x="482.6" y="404.3" fill="#421863" opacity=".4"/><rect width="13.5" height="13.5" x="495.7" y="404.3" fill="#421863" opacity=".4"/><rect width="13.5" height="13.5" x="508.7" y="404.3" fill="#430A5A" opacity=".37"/><rect width="13.5" height="13.5" x="469.6" y="417.4" fill="#421360" opacity=".39"/><rect width="13.5" height="13.5" x="482.6" y="417.4" fill="#421863" opacity=".4"/><rect width="13.5" height="13.5" x="495.7" y="417.4" fill="#411C66" opacity=".4"/><rect width="13.5" height="13.5" x="508.7" y="417.4" fill="#421360" opacity=".39"/><rect width="13.5" height="13.5" x="521.7" y="417.4" fill="#430F5D" opacity=".38"/><rect width="13.5" height="13.5" x="534.8" y="417.4" fill="#430A5A" opacity=".37"/><rect width="13.5" height="13.5" x="547.8" y="417.4" fill="#430859" opacity=".36"/><rect width="13.5" height="13.5" x="482.6" y="430.4" fill="#430F5D" opacity=".38"/><rect width="13.5" height="13.5" x="495.7" y="430.4" fill="#421863" opacity=".4"/><rect width="13.5" height="13.5" x="508.7" y="430.4" fill="#40296F" opacity=".43"/><rect width="13.5" height="13.5" x="521.7" y="430.4" fill="#40256C" opacity=".42"/><rect width="13.5" height="13.5" x="534.8" y="430.4" fill="#411C66" opacity=".4"/><rect width="13.5" height="13.5" x="547.8" y="430.4" fill="#430859" opacity=".36"/><rect width="13.5" height="13.5" x="495.7" y="443.5" fill="#421360" opacity=".39"/><rect width="13.5" height="13.5" x="508.7" y="443.5" fill="#3F2E73" opacity=".44"/><rect width="13.5" height="13.5" x="521.7" y="443.5" fill="#3F3376" opacity=".45"/><rect width="13.5" height="13.5" x="534.8" y="443.5" fill="#412069" opacity=".41"/><rect width="13.5" height="13.5" x="547.8" y="443.5" fill="#430859" opacity=".36"/><rect width="13.5" height="13.5" x="482.6" y="456.5" fill="#430A5A" opacity=".37"/><rect width="13.5" height="13.5" x="495.7" y="456.5" fill="#40256C" opacity=".42"/><rect width="13.5" height="13.5" x="508.7" y="456.5" fill="#3E3B7C" opacity=".47"/><rect width="13.5" height="13.5" x="521.7" y="456.5" fill="#3F3276" opacity=".45"/><rect width="13.5" height="13.5" x="534.8" y="456.5" fill="#421763" opacity=".4"/><rect width="13.5" height="13.5" x="482.6" y="469.6" fill="#411C66" opacity=".4"/><rect width="13.5" height="13.5" x="495.7" y="469.6" fill="#3F3376" opacity=".45"/><rect width="13.5" height="13.5" x="508.7" y="469.6" fill="#3E3779" opacity=".46"/><rect width="13.5" height="13.5" x="521.7" y="469.6" fill="#411C66" opacity=".4"/><rect width="13.5" height="13.5" x="469.6" y="482.6" fill="#430A5A" opacity=".37"/><rect width="13.5" height="13.5" x="482.6" y="482.6" fill="#3F2E73" opacity=".44"/><rect width="13.5" height="13.5" x="495.7" y="482.6" fill="#3E3B7C" opacity=".47"/><rect width="13.5" height="13.5" x="508.7" y="482.6" fill="#3F3276" opacity=".45"/><rect width="13.5" height="13.5" x="521.7" y="482.6" fill="#430E5D" opacity=".38"/><rect width="13.5" height="13.5" x="469.6" y="495.7" fill="#411C66" opacity=".4"/><rect width="13.5" height="13.5" x="482.6" y="495.7" fill="#3E3779" opacity=".46"/><rect width="13.5" height="13.5" x="495.7" y="495.7" fill="#3E3779" opacity=".46"/><rect width="13.5" height="13.5" x="508.7" y="495.7" fill="#411C66" opacity=".4"/><rect width="13.5" height="13.5" x="456.5" y="508.7" fill="#430E5D" opacity=".38"/><rect width="13.5" height="13.5" x="469.6" y="508.7" fill="#3F2E73" opacity=".44"/><rect width="13.5" height="13.5" x="482.6" y="508.7" fill="#3E3779" opacity=".46"/><rect width="13.5" height="13.5" x="495.7" y="508.7" fill="#402A70" opacity=".43"/><rect width="13.5" height="13.5" x="508.7" y="508.7" fill="#430A5A" opacity=".37"/><rect width="13.5" height="13.5" x="456.5" y="521.7" fill="#412069" opacity=".41"/><rect width="13.5" height="13.5" x="469.6" y="521.7" fill="#3E3779" opacity=".46"/><rect width="13.5" height="13.5" x="482.6" y="521.7" fill="#3F3276" opacity=".45"/><rect width="13.5" height="13.5" x="495.7" y="521.7" fill="#421863" opacity=".4"/><rect width="13.5" height="13.5" x="430.4" y="534.8" fill="#3C4985" opacity=".49"/><rect width="13.5" height="13.5" x="443.5" y="534.8" fill="#40AD77" opacity=".76"/><rect width="13.5" height="13.5" x="456.5" y="534.8" fill="#54C069" opacity=".81"/><rect width="13.5" height="13.5" x="469.6" y="534.8" fill="#21918C" opacity=".67"/><rect width="13.5" height="13.5" x="482.6" y="534.8" fill="#412069" opacity=".41"/><rect width="13.5" height="13.5" x="430.4" y="547.8" fill="#32678B" opacity=".57"/><rect width="13.5" height="13.5" x="443.5" y="547.8" fill="#D5E034" opacity=".96"/><rect width="13.5" height="13.5" x="456.5" y="547.8" fill="#FDE725" opacity="1"/><rect width="13.5" height="13.5" x="469.6" y="547.8" fill="#4AB670" opacity=".78"/><rect width="13.5" height="13.5" x="482.6" y="547.8" fill="#421562" opacity=".39"/></g><circle cx="300" cy="300" r="260.87" fill="none" stroke="#b3a795" stroke-width="1.5"/><circle cx="103.359" cy="186.679" r="6" fill="none" stroke="#b3a795" stroke-width="1.2"/><circle cx="77.965" cy="252.991" r="6" fill="none" stroke="#b3a795" stroke-width="1.2"/><circle cx="74.306" cy="323.904" r="6" fill="none" stroke="#b3a795" stroke-width="1.2"/><circle cx="92.739" cy="392.478" r="6" fill="none" stroke="#b3a795" stroke-width="1.2"/><circle cx="131.46" cy="451.999" r="6" fill="none" stroke="#b3a795" stroke-width="1.2"/><circle cx="186.679" cy="496.641" r="6" fill="none" stroke="#b3a795" stroke-width="1.2"/><circle cx="252.991" cy="522.035" r="6" fill="none" stroke="#b3a795" stroke-width="1.2"/><circle cx="323.904" cy="525.694" r="6" fill="none" stroke="#b3a795" stroke-width="1.2"/><circle cx="392.478" cy="507.261" r="6" fill="none" stroke="#b3a795" stroke-width="1.2"/><circle cx="451.999" cy="468.54" r="6" fill="none" stroke="#b3a795" stroke-width="1.2"/><circle cx="496.641" cy="413.321" r="7" fill="#1d7d62" stroke="#26221f" stroke-width="1"/><circle cx="522.035" cy="347.009" r="6" fill="none" stroke="#b3a795" stroke-width="1.2"/><circle cx="525.694" cy="276.096" r="6" fill="none" stroke="#b3a795" stroke-width="1.2"/><circle cx="507.261" cy="207.522" r="6" fill="none" stroke="#b3a795" stroke-width="1.2"/><circle cx="468.54" cy="148.001" r="6" fill="none" stroke="#b3a795" stroke-width="1.2"/><circle cx="413.321" cy="103.359" r="6" fill="none" stroke="#b3a795" stroke-width="1.2"/><circle cx="347.009" cy="77.965" r="6" fill="none" stroke="#b3a795" stroke-width="1.2"/><circle cx="276.096" cy="74.306" r="6" fill="none" stroke="#b3a795" stroke-width="1.2"/><circle cx="207.522" cy="92.739" r="6" fill="none" stroke="#b3a795" stroke-width="1.2"/><circle cx="148.001" cy="131.46" r="6" fill="none" stroke="#b3a795" stroke-width="1.2"/><line x1="18" x2="74.711" y1="582" y2="582" stroke="#26221f" stroke-width="2"/><text x="18" y="576" fill="#26221f" font-family="sans-serif" font-size="11">10 cm</text></svg>