<svg xmlns="http://www.w3.org/2000/svg" viewBox="0 0 620 340" width="620" height="340">
<rect width="620" height="340" fill="#ffffff"/>
<line x1="54" y1="20" x2="54" y2="296" stroke="#cfc5b7" stroke-width="1"/><line x1="54" y1="296" x2="470" y2="296" stroke="#cfc5b7" stroke-width="1"/><text x="46" y="300" text-anchor="end" font-family="sans-serif" font-size="11" fill="#5f574f">0.0</text><line x1="54" y1="296" x2="470" y2="296" stroke="#efe9df" stroke-width="1"/><text x="46" y="162" text-anchor="end" font-family="sans-serif" font-size="11" fill="#5f574f">0.5</text><line x1="54" y1="158" x2="470" y2="158" stroke="#efe9df" stroke-width="1"/><text x="46" y="24" text-anchor="end" font-family="sans-serif" font-size="11" fill="#5f574f">1.0</text><line x1="54" y1="20" x2="470" y2="20" stroke="#efe9df" stroke-width="1"/><text x="16" y="170" font-family="sans-serif" font-size="12" fill="#26221f" transform="rotate(-90 16 170)" text-anchor="middle">Trials</text><text x="54" y="314" text-anchor="middle" font-family="sans-serif" font-size="11" fill="#5f574f">1</text><text x="262" y="314" text-anchor="middle" font-family="sans-serif" font-size="11" fill="#5f574f">2</text><text x="470" y="314" text-anchor="middle" font-family="sans-serif" font-size="11" fill="#5f574f">3</text><text x="262" y="334" text-anchor="middle" font-family="sans-serif" font-size="12" fill="#26221f">Training day</text>
<rect x="19.3" y="20.0" width="21.1" height="276.0" fill="#c05f3c"/><rect x="227.3" y="20.0" width="21.1" height="276.0" fill="#c05f3c"/><rect x="435.3" y="20.0" width="21.1" height="276.0" fill="#1d7d62"/><rect x="61.6" y="20.0" width="21.1" height="276.0" fill="#c05f3c"/><rect x="269.6" y="20.0" width="21.1" height="276.0" fill="#c05f3c"/><rect x="477.6" y="20.0" width="21.1" height="276.0" fill="#c05f3c"/><rect x="482" y="20" width="10" height="10" fill="#1d7d62"/><text x="498" y="30" font-family="sans-serif" font-size="12" fill="#26221f">spatial</text><rect x="482" y="38" width="10" height="10" fill="#b0741a"/><text x="498" y="48" font-family="sans-serif" font-size="12" fill="#26221f">serial</text><rect x="482" y="56" width="10" height="10" fill="#c05f3c"/><text x="498" y="66" font-family="sans-serif" font-size="12" fill="#26221f">random</text><rect x="482" y="74" width="10" height="10" fill="#8a8a8a"/><text x="498" y="84" font-family="sans-serif" font-size="12" fill="#26221f">undetermined</text>
</svg>