<svg xmlns="http://www.w3.org/2000/svg" width="600" height="600" viewBox="0 0 600 600"><rect width="600" height="600" fill="#fff"/><defs><clipPath id="barnes-platform-600-300-300"><circle cx="300" cy="300" r="260.87"/></clipPath></defs><g clip-path="url(#barnes-platform-600-300-300)"><rect width="13.5" height="13.5" x="404.3" y="130.4" fill="#42115F" opacity=".38"/><rect width="13.5" height="13.5" x="417.4" y="130.4" fill="#3F2A70" opacity=".43"/><rect width="13.5" height="13.5" x="430.4" y="130.4" fill="#3C4884" opacity=".49"/><rect width="13.5" height="13.5" x="443.5" y="130.4" fill="#3D407F" opacity=".48"/><rect width="13.5" height="13.5" x="456.5" y="130.4" fill="#40276E" opacity=".43"/><rect width="13.5" height="13.5" x="91.3" y="143.5" fill="#412069" opacity=".41"/><rect width="13.5" height="13.5" x="104.3" y="143.5" fill="#39568B" opacity=".52"/><rect width="13.5" height="13.5" x="117.4" y="143.5" fill="#3A558B" opacity=".52"/><rect width="13.5" height="13.5" x="130.4" y="143.5" fill="#3E3879" opacity=".46"/><rect width="13.5" height="13.5" x="391.3" y="143.5" fill="#430A5A" opacity=".37"/><rect width="13.5" height="13.5" x="404.3" y="143.5" fill="#421763" opacity=".39"/><rect width="13.5" height="13.5" x="417.4" y="143.5" fill="#3F2B71" opacity=".44"/><rect width="13.5" height="13.5" x="430.4" y="143.5" fill="#3C4884" opacity=".49"/><rect width="13.5" height="13.5" x="443.5" y="143.5" fill="#3C4985" opacity=".5"/><rect width="13.5" height="13.5" x="456.5" y="143.5" fill="#3F3074" opacity=".44"/><rect width="13.5" height="13.5" x="469.6" y="143.5" fill="#420F5E" opacity=".38"/><rect width="13.5" height="13.5" x="65.2" y="156.5" fill="#3D4381" opacity=".48"/><rect width="13.5" height="13.5" x="78.3" y="156.5" fill="#385A8B" opacity=".53"/><rect width="13.5" height="13.5" x="91.3" y="156.5" fill="#2B7A8C" opacity=".62"/><rect width="13.5" height="13.5" x="104.3" y="156.5" fill="#2B798C" opacity=".61"/><rect width="13.5" height="13.5" x="117.4" y="156.5" fill="#33658B" opacity=".56"/><rect width="13.5" height="13.5" x="130.4" y="156.5" fill="#3D4180" opacity=".48"/><rect width="13.5" height="13.5" x="378.3" y="156.5" fill="#430C5B" opacity=".37"/><rect width="13.5" height="13.5" x="391.3" y="156.5" fill="#420F5E" opacity=".38"/><rect width="13.5" height="13.5" x="404.3" y="156.5" fill="#421763" opacity=".39"/><rect width="13.5" height="13.5" x="417.4" y="156.5" fill="#3F2B71" opacity=".44"/><rect width="13.5" height="13.5" x="430.4" y="156.5" fill="#3C4884" opacity=".49"/><rect width="13.5" height="13.5" x="443.5" y="156.5" fill="#3C4985" opacity=".5"/><rect width="13.5" height="13.5" x="456.5" y="156.5" fill="#3E3577" opacity=".45"/><rect width="13.5" height="13.5" x="469.6" y="156.5" fill="#421461" opacity=".39"/><rect width="13.5" height="13.5" x="65.2" y="169.6" fill="#3AA87B" opacity=".74"/><rect width="13.5" height="13.5" x="78.3" y="169.6" fill="#5AC565" opacity=".83"/><rect width="13.5" height="13.5" x="91.3" y="169.6" fill="#B0D843" opacity=".92"/><rect width="13.5" height="13.5" x="104.3" y="169.6" fill="#248B8C" opacity=".66"/><rect width="13.5" height="13.5" x="117.4" y="169.6" fill="#316A8B" opacity=".57"/><rect width="13.5" height="13.5" x="130.4" y="169.6" fill="#3D4180" opacity=".48"/><rect width="13.5" height="13.5" x="365.2" y="169.6" fill="#430C5B" opacity=".37"/><rect width="13.5" height="13.5" x="378.3" y="169.6" fill="#430E5D" opacity=".38"/><rect width="13.5" height="13.5" x="391.3" y="169.6" fill="#430C5B" opacity=".37"/><rect width="13.5" height="13.5" x="443.5" y="169.6" fill="#430A5A" opacity=".37"/><rect width="13.5" height="13.5" x="456.5" y="169.6" fill="#420F5E" opacity=".38"/><rect width="13.5" height="13.5" x="469.6" y="169.6" fill="#411A65" opacity=".4"/><rect width="13.5" height="13.5" x="482.6" y="169.6" fill="#3B518A" opacity=".51"/><rect width="13.5" height="13.5" x="495.7" y="169.6" fill="#3C4C87" opacity=".5"/><rect width="13.5" height="13.5" x="508.7" y="169.6" fill="#3D4180" opacity=".48"/><rect width="13.5" height="13.5" x="65.2" y="182.6" fill="#3DAB78" opacity=".75"/><rect width="13.5" height="13.5" x="78.3" y="182.6" fill="#5CC763" opacity=".83"/><rect width="13.5" height="13.5" x="91.3" y="182.6" fill="#B9DA3F" opacity=".93"/><rect width="13.5" height="13.5" x="104.3" y="182.6" fill="#35608B" opacity=".55"/><rect width="13.5" height="13.5" x="117.4" y="182.6" fill="#3E3B7C" opacity=".47"/><rect width="13.5" height="13.5" x="130.4" y="182.6" fill="#430A5A" opacity=".37"/><rect width="13.5" height="13.5" x="339.1" y="182.6" fill="#430959" opacity=".37"/><rect width="13.5" height="13.5" x="352.2" y="182.6" fill="#430A5A" opacity=".37"/><rect width="13.5" height="13.5" x="365.2" y="182.6" fill="#430C5B" opacity=".37"/><rect width="13.5" height="13.5" x="378.3" y="182.6" fill="#430959" opacity=".37"/><rect width="13.5" height="13.5" x="469.6" y="182.6" fill="#42115F" opacity=".38"/><rect width="13.5" height="13.5" x="482.6" y="182.6" fill="#6FCC5B" opacity=".85"/><rect width="13.5" height="13.5" x="495.7" y="182.6" fill="#B6DA40" opacity=".93"/><rect width="13.5" height="13.5" x="508.7" y="182.6" fill="#A0D649" opacity=".91"/><rect width="13.5" height="13.5" x="521.7" y="182.6" fill="#3F2A70" opacity=".43"/><rect width="13.5" height="13.5" x="65.2" y="195.7" fill="#26858C" opacity=".64"/><rect width="13.5" height="13.5" x="78.3" y="195.7" fill="#22928B" opacity=".68"/><rect width="13.5" height="13.5" x="91.3" y="195.7" fill="#48B571" opacity=".78"/><rect width="13.5" height="13.5" x="104.3" y="195.7" fill="#3B518A" opacity=".51"/><rect width="13.5" height="13.5" x="117.4" y="195.7" fill="#3D4180" opacity=".48"/><rect width="13.5" height="13.5" x="130.4" y="195.7" fill="#420F5E" opacity=".38"/><rect width="13.5" height="13.5" x="287" y="195.7" fill="#430A5A" opacity=".37"/><rect width="13.5" height="13.5" x="300" y="195.7" fill="#411A65" opacity=".4"/><rect width="13.5" height="13.5" x="313" y="195.7" fill="#412069" opacity=".41"/><rect width="13.5" height="13.5" x="326.1" y="195.7" fill="#411A65" opacity=".4"/><rect width="13.5" height="13.5" x="339.1" y="195.7" fill="#430E5D" opacity=".38"/><rect width="13.5" height="13.5" x="352.2" y="195.7" fill="#430959" opacity=".37"/><rect width="13.5" height="13.5" x="469.6" y="195.7" fill="#430C5B" opacity=".37"/><rect width="13.5" height="13.5" x="482.6" y="195.7" fill="#66CA5F" opacity=".85"/><rect width="13.5" height="13.5" x="495.7" y="195.7" fill="#FDE725" opacity="1"/><rect width="13.5" height="13.5" x="508.7" y="195.7" fill="#E7E32D" opacity=".98"/><rect width="13.5" height="13.5" x="521.7" y="195.7" fill="#3B4E88" opacity=".5"/><rect width="13.5" height="13.5" x="65.2" y="208.7" fill="#421562" opacity=".39"/><rect width="13.5" height="13.5" x="78.3" y="208.7" fill="#411964" opacity=".4"/><rect width="13.5" height="13.5" x="91.3" y="208.7" fill="#3C4582" opacity=".49"/><rect width="13.5" height="13.5" x="104.3" y="208.7" fill="#3D3D7D" opacity=".47"/><rect width="13.5" height="13.5" x="117.4" y="208.7" fill="#3D3D7D" opacity=".47"/><rect width="13.5" height="13.5" x="130.4" y="208.7" fill="#421562" opacity=".39"/><rect width="13.5" height="13.5" x="143.5" y="208.7" fill="#430C5B" opacity=".37"/><rect width="13.5" height="13.5" x="156.5" y="208.7" fill="#430E5D" opacity=".38"/><rect width="13.5" height="13.5" x="169.6" y="208.7" fill="#430E5D" opacity=".38"/><rect width="13.5" height="13.5" x="182.6" y="208.7" fill="#430A5A" opacity=".37"/><rect width="13.5" height="13.5" x="287" y="208.7" fill="#420F5E" opacity=".38"/><rect width="13.5" height="13.5" x="300" y="208.7" fill="#411D67" opacity=".41"/><rect width="13.5" height="13.5" x="313" y="208.7" fill="#40226A" opacity=".42"/><rect width="13.5" height="13.5" x="326.1" y="208.7" fill="#411A65" opacity=".4"/><rect width="13.5" height="13.5" x="339.1" y="208.7" fill="#430A5A" opacity=".37"/><rect width="13.5" height="13.5" x="482.6" y="208.7" fill="#289887" opacity=".69"/><rect width="13.5" height="13.5" x="495.7" y="208.7" fill="#69CB5E" opacity=".85"/><rect width="13.5" height="13.5" x="508.7" y="208.7" fill="#69CB5E" opacity=".85"/><rect width="13.5" height="13.5" x="521.7" y="208.7" fill="#3B4E88" opacity=".5"/><rect width="13.5" height="13.5" x="65.2" y="221.7" fill="#3F2A70" opacity=".43"/><rect width="13.5" height="13.5" x="78.3" y="221.7" fill="#3F2F73" opacity=".44"/><rect width="13.5" height="13.5" x="91.3" y="221.7" fill="#3E3B7C" opacity=".47"/><rect width="13.5" height="13.5" x="104.3" y="221.7" fill="#411F68" opacity=".41"/><rect width="13.5" height="13.5" x="117.4" y="221.7" fill="#411D67" opacity=".41"/><rect width="13.5" height="13.5" x="130.4" y="221.7" fill="#421562" opacity=".39"/><rect width="13.5" height="13.5" x="143.5" y="221.7" fill="#430C5B" opacity=".37"/><rect width="13.5" height="13.5" x="156.5" y="221.7" fill="#430E5D" opacity=".38"/><rect width="13.5" height="13.5" x="169.6" y="221.7" fill="#430E5D" opacity=".38"/><rect width="13.5" height="13.5" x="182.6" y="221.7" fill="#430A5A" opacity=".37"/><rect width="13.5" height="13.5" x="287" y="221.7" fill="#420F5E" opacity=".38"/><rect width="13.5" height="13.5" x="300" y="221.7" fill="#411D67" opacity=".41"/><rect width="13.5" height="13.5" x="313" y="221.7" fill="#412069" opacity=".41"/><rect width="13.5" height="13.5" x="326.1" y="221.7" fill="#421562" opacity=".39"/><rect width="13.5" height="13.5" x="495.7" y="221.7" fill="#40256D" opacity=".42"/><rect width="13.5" height="13.5" x="508.7" y="221.7" fill="#40256D" opacity=".42"/><rect width="13.5" height="13.5" x="521.7" y="221.7" fill="#40256D" opacity=".42"/><rect width="13.5" height="13.5" x="52.2" y="234.8" fill="#430C5B" opacity=".37"/><rect width="13.5" height="13.5" x="65.2" y="234.8" fill="#3F2D72" opacity=".44"/><rect width="13.5" height="13.5" x="78.3" y="234.8" fill="#3F3275" opacity=".45"/><rect width="13.5" height="13.5" x="91.3" y="234.8" fill="#40276E" opacity=".43"/><rect width="13.5" height="13.5" x="143.5" y="234.8" fill="#430A5A" opacity=".37"/><rect width="13.5" height="13.5" x="156.5" y="234.8" fill="#430E5D" opacity=".38"/><rect width="13.5" height="13.5" x="169.6" y="234.8" fill="#430E5D" opacity=".38"/><rect width="13.5" height="13.5" x="182.6" y="234.8" fill="#430A5A" opacity=".37"/><rect width="13.5" height="13.5" x="234.8" y="234.8" fill="#430959" opacity=".37"/><rect width="13.5" height="13.5" x="247.8" y="234.8" fill="#430A5A" opacity=".37"/><rect width="13.5" height="13.5" x="260.9" y="234.8" fill="#430959" opacity=".37"/><rect width="13.5" height="13.5" x="52.2" y="247.8" fill="#421260" opacity=".38"/><rect width="13.5" height="13.5" x="65.2" y="247.8" fill="#3E3678" opacity=".46"/><rect width="13.5" height="13.5" x="78.3" y="247.8" fill="#3E3879" opacity=".46"/><rect width="13.5" height="13.5" x="91.3" y="247.8" fill="#40276E" opacity=".43"/><rect width="13.5" height="13.5" x="169.6" y="247.8" fill="#430959" opacity=".37"/><rect width="13.5" height="13.5" x="182.6" y="247.8" fill="#430959" opacity=".37"/><rect width="13.5" height="13.5" x="195.7" y="247.8" fill="#430959" opacity=".37"/><rect width="13.5" height="13.5" x="208.7" y="247.8" fill="#430959" opacity=".37"/><rect width="13.5" height="13.5" x="221.7" y="247.8" fill="#430959" opacity=".37"/><rect width="13.5" height="13.5" x="234.8" y="247.8" fill="#430959" opacity=".37"/><rect width="13.5" height="13.5" x="247.8" y="247.8" fill="#430A5A" opacity=".37"/><rect width="13.5" height="13.5" x="52.2" y="260.9" fill="#421260" opacity=".38"/><rect width="13.5" height="13.5" x="65.2" y="260.9" fill="#3F3074" opacity=".44"/><rect width="13.5" height="13.5" x="78.3" y="260.9" fill="#3F3275" opacity=".45"/><rect width="13.5" height="13.5" x="91.3" y="260.9" fill="#40246B" opacity=".42"/><rect width="13.5" height="13.5" x="104.3" y="260.9" fill="#430C5B" opacity=".37"/><rect width="13.5" height="13.5" x="117.4" y="260.9" fill="#430E5D" opacity=".38"/><rect width="13.5" height="13.5" x="130.4" y="260.9" fill="#430C5B" opacity=".37"/><rect width="13.5" height="13.5" x="143.5" y="260.9" fill="#430959" opacity=".37"/><rect width="13.5" height="13.5" x="156.5" y="260.9" fill="#430959" opacity=".37"/><rect width="13.5" height="13.5" x="169.6" y="260.9" fill="#430959" opacity=".37"/><rect width="13.5" height="13.5" x="182.6" y="260.9" fill="#430959" opacity=".37"/><rect width="13.5" height="13.5" x="195.7" y="260.9" fill="#430959" opacity=".37"/><rect width="13.5" height="13.5" x="208.7" y="260.9" fill="#430959" opacity=".37"/><rect width="13.5" height="13.5" x="221.7" y="260.9" fill="#430959" opacity=".37"/><rect width="13.5" height="13.5" x="65.2" y="273.9" fill="#412069" opacity=".41"/><rect width="13.5" height="13.5" x="78.3" y="273.9" fill="#40256D" opacity=".42"/><rect width="13.5" height="13.5" x="91.3" y="273.9" fill="#40276E" opacity=".43"/><rect width="13.5" height="13.5" x="104.3" y="273.9" fill="#421461" opacity=".39"/><rect width="13.5" height="13.5" x="117.4" y="273.9" fill="#421260" opacity=".38"/><rect width="13.5" height="13.5" x="130.4" y="273.9" fill="#430C5B" opacity=".37"/><rect width="13.5" height="13.5" x="143.5" y="273.9" fill="#430959" opacity=".37"/><rect width="13.5" height="13.5" x="156.5" y="273.9" fill="#430959" opacity=".37"/><rect width="13.5" height="13.5" x="169.6" y="273.9" fill="#430959" opacity=".37"/><rect width="13.5" height="13.5" x="182.6" y="273.9" fill="#430959" opacity=".37"/><rect width="13.5" height="13.5" x="195.7" y="273.9" fill="#430959" opacity=".37"/><rect width="13.5" height="13.5" x="65.2" y="287" fill="#421461" opacity=".39"/><rect width="13.5" height="13.5" x="78.3" y="287" fill="#411964" opacity=".4"/><rect width="13.5" height="13.5" x="91.3" y="287" fill="#412069" opacity=".41"/><rect width="13.5" height="13.5" x="104.3" y="287" fill="#421461" opacity=".39"/><rect width="13.5" height="13.5" x="117.4" y="287" fill="#421260" opacity=".38"/><rect width="13.5" height="13.5" x="130.4" y="287" fill="#430C5B" opacity=".37"/><rect width="13.5" height="13.5" x="91.3" y="300" fill="#430959" opacity=".37"/><rect width="13.5" height="13.5" x="104.3" y="300" fill="#430959" opacity=".37"/><rect width="13.5" height="13.5" x="260.9" y="300" fill="#2F6F8B" opacity=".59"/><rect width="13.5" height="13.5" x="273.9" y="300" fill="#2F6F8B" opacity=".59"/><rect width="13.5" height="13.5" x="287" y="300" fill="#2F6F8B" opacity=".59"/><rect width="13.5" height="13.5" x="260.9" y="313" fill="#2F6F8B" opacity=".59"/><rect width="13.5" height="13.5" x="273.9" y="313" fill="#2F6F8B" opacity=".59"/><rect width="13.5" height="13.5" x="287" y="313" fill="#2F6F8B" opacity=".59"/><rect width="13.5" height="13.5" x="260.9" y="326.1" fill="#2F6F8B" opacity=".59"/><rect width="13.5" height="13.5" x="273.9" y="326.1" fill="#2F6F8B" opacity=".59"/><rect width="13.5" height="13.5" x="287" y="326.1" fill="#2F6F8B" opacity=".59"/></g><circle cx="300" cy="300" r="260.87" fill="none" stroke="#b3a795" stroke-width="1.5"/><circle cx="537.947" cy="268.674" r="7" fill="#1d7d62" stroke="#26221f" stroke-width="1"/><circle cx="516.62" cy="196.677" r="6" fill="none" stroke="#b3a795" stroke-width="1.2"/><circle cx="474.09" cy="134.795" r="6" fill="none" stroke="#b3a795" stroke-width="1.2"/><circle cx="414.518" cy="89.084" r="6" fill="none" stroke="#b3a795" stroke-width="1.2"/><circle cx="343.737" cy="64.019" r="6" fill="none" stroke="#b3a795" stroke-width="1.2"/><circle cx="268.674" cy="62.053" r="6" fill="none" stroke="#b3a795" stroke-width="1.2"/><circle cx="196.677" cy="83.38" r="6" fill="none" stroke="#b3a795" stroke-width="1.2"/><circle cx="134.795" cy="125.91" r="6" fill="none" stroke="#b3a795" stroke-width="1.2"/><circle cx="89.084" cy="185.482" r="6" fill="none" stroke="#b3a795" stroke-width="1.2"/><circle cx="64.019" cy="256.263" r="6" fill="none" stroke="#b3a795" stroke-width="1.2"/><circle cx="62.053" cy="331.326" r="6" fill="none" stroke="#b3a795" stroke-width="1.2"/><circle cx="83.38" cy="403.323" r="6" fill="none" stroke="#b3a795" stroke-width="1.2"/><circle cx="125.91" cy="465.205" r="6" fill="none" stroke="#b3a795" stroke-width="1.2"/><circle cx="185.482" cy="510.916" r="6" fill="none" stroke="#b3a795" stroke-width="1.2"/><circle cx="256.263" cy="535.981" r="6" fill="none" stroke="#b3a795" stroke-width="1.2"/><circle cx="331.326" cy="537.947" r="6" fill="none" stroke="#b3a795" stroke-width="1.2"/><circle cx="403.323" cy="516.62" r="6" fill="none" stroke="#b3a795" stroke-width="1.2"/><circle cx="465.205" cy="474.09" r="6" fill="none" stroke="#b3a795" stroke-width="1.2"/><circle cx="510.916" cy="414.518" r="6" fill="none" stroke="#b3a795" stroke-width="1.2"/><circle cx="535.981" cy="343.737" r="6" fill="none" stroke="#b3a795" stroke-width="1.2"/><line x1="18" x2="74.711" y1="582" y2="582" stroke="#26221f" stroke-width="2"/><text x="18" y="576" fill="#26221f" font-family="sans-serif" font-size="11">10 cm</text></svg>